<svg width="390" height="120" viewBox="0 0 390 120" fill="none" xmlns="http://www.w3.org/2000/svg">
<path d="M172.195 32.97H60.8951C45.7515 32.97 33.4751 45.2463 33.4751 60.39C33.4751 75.5336 45.7515 87.81 60.8951 87.81H172.195C187.339 87.81 199.615 75.5336 199.615 60.39C199.615 45.2463 187.339 32.97 172.195 32.97Z" fill="#FFE600"/>
<path fill-rule="evenodd" clip-rule="evenodd" d="M186.705 59.91C186.701 57.9154 186.328 55.9388 185.605 54.08C185.545 53.92 185.495 53.77 185.435 53.62C185.375 53.47 185.215 53.14 185.095 52.9C184.975 52.66 184.875 52.4 184.745 52.16L184.435 51.66C184.265 51.37 184.105 51.08 183.915 50.8C183.725 50.52 183.685 50.5 183.575 50.34C183.465 50.18 183.185 49.79 182.965 49.53C182.745 49.27 182.445 48.94 182.175 48.65C182.085 48.56 182.005 48.45 181.905 48.36L181.565 48.05C181.295 47.79 181.025 47.53 180.735 47.29C180.445 47.05 180.075 46.78 179.735 46.54L179.475 46.35C179.095 46.1 178.705 45.87 178.315 45.65L178.125 45.53C177.745 45.33 177.365 45.15 176.975 44.98L176.685 44.84C176.355 44.7 176.025 44.59 175.685 44.48C175.512 44.4078 175.335 44.3444 175.155 44.29L174.465 44.11C174.165 44.03 173.865 43.94 173.565 43.88H173.435C172.413 43.6832 171.376 43.5827 170.335 43.58C170.075 43.58 169.815 43.58 169.555 43.58H169.015L168.075 43.69L167.665 43.75C167.335 43.81 166.995 43.87 166.665 43.95L166.435 44.01C166.065 44.1 165.695 44.19 165.335 44.31C164.446 44.5828 163.5 44.6074 162.598 44.3812C161.696 44.155 160.873 43.6865 160.218 43.0265C159.564 42.3665 159.102 41.5401 158.882 40.6365C158.663 39.7329 158.695 38.7867 158.975 37.9C158.975 37.84 158.975 37.78 159.025 37.72C159.075 37.66 159.095 37.48 159.125 37.36C159.225 37 159.315 36.64 159.395 36.28C159.395 36.17 159.395 36.05 159.465 35.94C159.644 34.9735 159.734 33.9928 159.735 33.01V32.87C159.731 31.8632 159.634 30.8589 159.445 29.87C159.355 29.3699 159.234 28.8757 159.085 28.39C158.932 27.89 158.762 27.4 158.575 26.92V26.86C158.395 26.43 158.205 26.01 157.985 25.6L157.865 25.35C157.635 24.92 157.385 24.49 157.115 24.08L157.045 23.99C156.795 23.61 156.525 23.25 156.245 22.9L156.005 22.6C155.693 22.2144 155.359 21.8471 155.005 21.5C153.491 19.9772 151.689 18.7705 149.705 17.95C147.72 17.1294 145.593 16.7113 143.445 16.72C142.895 16.72 142.355 16.72 141.815 16.79C138.055 17.1576 134.541 18.8229 131.875 21.5C131.535 21.84 131.215 22.2 130.875 22.57L130.625 22.88C130.385 23.18 130.155 23.49 129.945 23.8L129.755 24.06C129.505 24.44 129.275 24.83 129.055 25.23L128.865 25.61C128.705 25.92 128.555 26.24 128.415 26.55C128.415 26.68 128.305 26.8 128.255 26.93C128.085 27.36 127.925 27.79 127.785 28.23L127.725 28.46C127.605 28.87 127.505 29.28 127.415 29.7C127.415 29.78 127.415 29.86 127.415 29.95C127.224 30.9386 127.127 31.9431 127.125 32.95C127.125 32.95 127.125 33.01 127.125 33.04C127.125 33.07 127.125 33.1 127.125 33.13C127.126 34.1062 127.216 35.0803 127.395 36.04C127.395 36.21 127.465 36.39 127.505 36.56C127.545 36.73 127.635 37.12 127.715 37.4C127.795 37.68 127.815 37.78 127.875 37.96C128.115 38.724 128.172 39.5337 128.041 40.3237C127.91 41.1137 127.596 41.862 127.123 42.5081C126.65 43.1543 126.032 43.6802 125.318 44.0436C124.605 44.407 123.816 44.5975 123.015 44.6C122.51 44.5991 122.007 44.5215 121.525 44.37C121.195 44.26 120.865 44.18 120.525 44.1L120.125 44L119.325 43.84L118.555 43.73L117.985 43.66C117.495 43.66 116.985 43.59 116.495 43.59C114.35 43.5858 112.226 44.007 110.245 44.8292C108.265 45.6514 106.466 46.8583 104.955 48.38C104.685 48.64 104.445 48.93 104.205 49.2C102.506 51.1511 101.296 53.4786 100.675 55.99V56.11C100.424 57.1631 100.277 58.2382 100.235 59.32C100.172 61.2413 100.44 63.1591 101.025 64.99C101.25 65.7493 101.293 66.5505 101.153 67.3297C101.013 68.109 100.693 68.8446 100.217 69.478C99.7424 70.1114 99.1259 70.625 98.4171 70.9778C97.7083 71.3306 96.9268 71.5129 96.1351 71.51C95.6232 71.5085 95.1143 71.431 94.6251 71.28C94.3151 71.18 94.0051 71.1 93.6951 71.02L93.2451 70.91L92.4151 70.75L91.7451 70.65L91.0551 70.57C90.6351 70.57 90.2151 70.55 89.7951 70.51H89.4951C89.0751 70.51 88.6551 70.53 88.2351 70.57L87.5351 70.65L86.8751 70.75L86.0451 70.91L85.5951 71.02C85.2851 71.1 84.9751 71.18 84.6651 71.28C84.1727 71.4318 83.6604 71.5094 83.1451 71.51C82.442 71.511 81.7463 71.3661 81.1021 71.0843C80.4578 70.8025 79.8791 70.3901 79.4026 69.8731C78.926 69.3561 78.5619 68.7458 78.3334 68.0809C78.1049 67.4159 78.017 66.7107 78.0751 66.01C78.8192 64.1179 79.2024 62.1032 79.2051 60.07C79.2034 58.6456 79.0185 57.2273 78.6551 55.85C78.344 54.695 78.3226 53.481 78.593 52.3157C78.8634 51.1505 79.4171 50.07 80.2051 49.17C80.3107 49.0429 80.4242 48.9226 80.5451 48.81C81.9115 47.4441 83.7631 46.6747 85.6951 46.67C85.9994 46.6702 86.3034 46.6902 86.6051 46.73C87.1194 46.7935 87.6369 46.8269 88.1551 46.83C90.5395 46.828 92.8698 46.1193 94.8515 44.7933C96.8332 43.4674 98.3774 41.5838 99.289 39.3805C100.201 37.1773 100.439 34.7532 99.9729 32.4147C99.5072 30.0763 98.3588 27.9283 96.6728 26.2423C94.9868 24.5563 92.8388 23.4079 90.5003 22.9422C88.1619 22.4766 85.7378 22.7145 83.5346 23.6261C81.3313 24.5376 79.4477 26.0819 78.1217 28.0636C76.7958 30.0453 76.0871 32.3756 76.0851 34.76C76.0882 35.2782 76.1216 35.7957 76.1851 36.31C76.3199 37.4132 76.2027 38.5326 75.8424 39.584C75.4822 40.6353 74.8882 41.5913 74.1051 42.38L73.7451 42.72C72.412 43.8738 70.7081 44.5092 68.9451 44.51C68.6105 44.5115 68.2762 44.4881 67.9451 44.44C66.2571 43.868 64.4874 43.5742 62.7051 43.57C59.4739 43.5752 56.3165 44.5372 53.6313 46.3346C50.9461 48.132 48.8533 50.6843 47.6168 53.6696C46.3803 56.6549 46.0555 59.9395 46.6835 63.1092C47.3114 66.2788 48.8639 69.1916 51.1451 71.48L51.2251 71.56C53.468 73.8352 56.3297 75.4016 59.455 76.0647C62.5803 76.7278 65.8315 76.4584 68.8051 75.29C68.9351 75.29 69.0651 75.29 69.2051 75.29C69.8751 75.2861 70.5389 75.4168 71.1574 75.6745C71.7758 75.9322 72.3361 76.3115 72.8051 76.79C73.4662 77.4489 73.9334 78.2768 74.1556 79.1834C74.3779 80.0899 74.3465 81.0401 74.0651 81.93C74.0051 82.12 73.9551 82.31 73.9051 82.51C73.8551 82.71 73.7551 83.06 73.6951 83.33C73.6351 83.6 73.6251 83.69 73.5851 83.87C73.4056 84.8262 73.3152 85.797 73.3151 86.77C73.3151 86.77 73.3151 86.83 73.3151 86.86C73.3151 86.89 73.3151 86.92 73.3151 86.95C73.3172 87.9569 73.4142 88.9613 73.6051 89.95C73.6051 90.04 73.6051 90.12 73.6051 90.2C73.6951 90.62 73.7951 91.03 73.9151 91.43C73.9338 91.5112 73.9572 91.5914 73.9851 91.67C74.1151 92.11 74.2751 92.54 74.4451 92.97C74.4951 93.1 74.5551 93.22 74.6151 93.35C74.7451 93.66 74.8951 93.97 75.0451 94.28L75.2551 94.67C75.4651 95.07 75.6951 95.45 75.9451 95.83C76.006 95.9273 76.0728 96.0208 76.1451 96.11C76.3518 96.4167 76.5718 96.7167 76.8051 97.01L77.0751 97.34C77.3851 97.7 77.6951 98.06 78.0751 98.4C78.4533 98.7866 78.854 99.1506 79.2751 99.49C82.1938 101.888 85.8576 103.193 89.6351 103.18C91.7825 103.189 93.9103 102.771 95.8948 101.95C97.8793 101.129 99.6809 99.9227 101.195 98.4C101.547 98.061 101.881 97.7039 102.195 97.33C102.287 97.2279 102.374 97.1211 102.455 97.01C102.695 96.72 102.915 96.42 103.125 96.11C103.197 96.0208 103.264 95.9273 103.325 95.83C103.575 95.45 103.805 95.07 104.015 94.67L104.225 94.28C104.375 93.97 104.525 93.67 104.655 93.35C104.715 93.22 104.775 93.1 104.825 92.97C104.995 92.54 105.155 92.11 105.285 91.67C105.313 91.5914 105.336 91.5112 105.355 91.43C105.475 91.02 105.575 90.62 105.665 90.21C105.676 90.1223 105.693 90.0355 105.715 89.95C105.906 88.9613 106.003 87.9569 106.005 86.95C106.005 86.95 106.005 86.88 106.005 86.85C106.005 86.82 106.005 86.78 106.005 86.75C106.004 85.7804 105.914 84.813 105.735 83.86L105.615 83.31C105.565 83.04 105.495 82.78 105.425 82.52C105.355 82.26 105.315 82.11 105.255 81.92C104.974 81.0301 104.942 80.0799 105.165 79.1734C105.387 78.2668 105.854 77.4389 106.515 76.78C107.163 76.1176 107.981 75.6481 108.88 75.4238C109.779 75.1996 110.722 75.2294 111.605 75.51C111.935 75.62 112.275 75.7 112.605 75.79L112.975 75.88L113.795 76.04L114.545 76.15L115.135 76.22C115.625 76.22 116.135 76.29 116.615 76.29C120.947 76.2847 125.1 74.5594 128.16 71.4935C131.22 68.4276 132.938 64.2719 132.935 59.94C132.934 58.1901 132.654 56.4515 132.105 54.79C131.895 54.035 131.863 53.2417 132.011 52.4721C132.159 51.7025 132.482 50.9776 132.957 50.3539C133.431 49.7303 134.044 49.2249 134.746 48.8773C135.448 48.5296 136.221 48.3491 137.005 48.35C137.52 48.3506 138.033 48.4281 138.525 48.58C138.835 48.68 139.155 48.76 139.525 48.84L139.945 48.94C140.225 49.01 140.505 49.06 140.795 49.11L141.445 49.21L142.145 49.29C142.565 49.29 142.985 49.31 143.405 49.35H143.705C144.125 49.35 144.545 49.33 144.965 49.29L145.665 49.21L146.315 49.11C146.605 49.06 146.885 49.01 147.165 48.94L147.585 48.84C147.905 48.76 148.225 48.68 148.585 48.58C149.074 48.429 149.583 48.3515 150.095 48.35C150.896 48.3486 151.686 48.5364 152.401 48.8979C153.116 49.2595 153.735 49.7847 154.209 50.4308C154.682 51.0768 154.997 51.8255 155.127 52.616C155.256 53.4065 155.197 54.2165 154.955 54.98C154.885 55.19 154.835 55.4 154.775 55.61C154.715 55.82 154.645 56.11 154.595 56.36C154.545 56.61 154.505 56.75 154.465 56.95C154.385 57.38 154.325 57.81 154.275 58.25C154.279 58.2731 154.279 58.2968 154.275 58.32C154.275 58.81 154.215 59.32 154.205 59.8V60.1C154.205 60.36 154.205 60.61 154.205 60.87C154.2 60.9599 154.2 61.0501 154.205 61.14C154.205 61.41 154.205 61.69 154.285 61.96V62.18C154.285 62.47 154.365 62.75 154.425 63.04V63.2C154.485 63.51 154.555 63.81 154.635 64.11C154.947 65.2657 154.967 66.4806 154.695 67.6462C154.423 68.8118 153.866 69.8918 153.075 70.79C152.973 70.9169 152.863 71.0372 152.745 71.15C151.374 72.5146 149.52 73.2835 147.585 73.29C147.281 73.2898 146.977 73.2698 146.675 73.23C146.164 73.1701 145.65 73.1401 145.135 73.14C142.747 73.138 140.412 73.8445 138.426 75.17C136.439 76.4955 134.891 78.3805 133.976 80.5864C133.061 82.7923 132.821 85.22 133.287 87.5623C133.752 89.9045 134.902 92.0561 136.59 93.7448C138.279 95.4334 140.431 96.5832 142.773 97.0486C145.115 97.514 147.543 97.2741 149.749 96.3593C151.955 95.4445 153.84 93.8959 155.165 91.9095C156.491 89.9231 157.197 87.5881 157.195 85.2C157.197 84.6816 157.164 84.1638 157.095 83.65C156.961 82.5484 157.079 81.4307 157.439 80.3811C157.799 79.3314 158.393 78.3771 159.175 77.59L159.535 77.25C160.865 76.0902 162.57 75.4509 164.335 75.45C164.97 75.4477 165.603 75.5318 166.215 75.7L166.965 75.87L167.315 75.95C167.745 76.03 168.185 76.09 168.625 76.14H168.985C169.465 76.14 169.985 76.21 170.435 76.21C174.767 76.1909 178.919 74.4707 181.995 71.42C185.021 68.3541 186.714 64.2175 186.705 59.91Z" fill="white"/>
<path d="M172.605 30.63H164.525C164.585 31.2114 164.615 31.7955 164.615 32.38C164.615 32.38 164.615 32.45 164.615 32.48C164.615 32.51 164.615 32.55 164.615 32.58C164.605 33.6565 164.504 34.7302 164.315 35.79H172.605C179.129 35.79 185.387 38.3818 190 42.9952C194.613 47.6086 197.205 53.8657 197.205 60.39C197.205 66.9143 194.613 73.1714 190 77.7848C185.387 82.3982 179.129 84.99 172.605 84.99H164.605C164.733 86.7141 164.619 88.4477 164.265 90.14H172.645C180.442 89.9971 187.872 86.7993 193.335 81.2347C198.799 75.6702 201.86 68.1834 201.86 60.385C201.86 52.5866 198.799 45.0998 193.335 39.5353C187.872 33.9707 180.442 30.7729 172.645 30.63H172.605Z" fill="#32A0D2"/>
<path d="M65.8152 86.42V86.3C65.8152 85.86 65.8152 85.42 65.8752 84.99H60.4752C53.9509 84.99 47.6938 82.3982 43.0804 77.7848C38.467 73.1714 35.8752 66.9143 35.8752 60.39C35.8752 53.8657 38.467 47.6086 43.0804 42.9952C47.6938 38.3818 53.9509 35.79 60.4752 35.79H66.1152C65.7979 34.0891 65.7239 32.3517 65.8952 30.63H60.4752C52.6782 30.7729 45.2488 33.9707 39.7853 39.5353C34.3218 45.0998 31.2607 52.5866 31.2607 60.385C31.2607 68.1834 34.3218 75.6702 39.7853 81.2347C45.2488 86.7993 52.6782 89.9971 60.4752 90.14H66.2052C65.9504 88.9163 65.8197 87.67 65.8152 86.42Z" fill="#DC2828"/>
<path fill-rule="evenodd" clip-rule="evenodd" d="M62.7553 45.78C64.001 45.7788 65.2414 45.9402 66.4453 46.26C67.9267 46.6548 69.4825 46.6788 70.9753 46.33C72.4682 45.9812 73.8522 45.2703 75.0053 44.26C75.1753 44.12 75.3253 43.97 75.4753 43.82C76.4828 42.8117 77.247 41.5868 77.7097 40.2386C78.1723 38.8905 78.3214 37.4545 78.1453 36.04C78.0885 35.6124 78.0618 35.1813 78.0653 34.75C78.0653 32.7722 78.6518 30.8388 79.7506 29.1943C80.8494 27.5498 82.4112 26.2681 84.2385 25.5112C86.0658 24.7543 88.0764 24.5563 90.0162 24.9422C91.956 25.328 93.7379 26.2804 95.1364 27.6789C96.5349 29.0775 97.4873 30.8593 97.8732 32.7991C98.259 34.7389 98.061 36.7496 97.3041 38.5768C96.5472 40.4041 95.2655 41.9659 93.621 43.0647C91.9765 44.1635 90.0431 44.75 88.0653 44.75C87.634 44.7536 87.2029 44.7269 86.7753 44.67C85.3607 44.4917 83.9241 44.6397 82.5756 45.1025C81.227 45.5653 80.0023 46.3307 78.9953 47.34C78.8453 47.49 78.6953 47.64 78.5553 47.8C77.5457 48.9555 76.8354 50.3413 76.4866 51.8356C76.1379 53.3299 76.1615 54.887 76.5553 56.37C76.8751 57.5739 77.0365 58.8144 77.0353 60.06C77.0353 62.8863 76.1972 65.6491 74.627 67.9991C73.0568 70.3491 70.825 72.1807 68.2139 73.2622C65.6027 74.3438 62.7295 74.6268 59.9575 74.0754C57.1855 73.524 54.6393 72.1631 52.6408 70.1646C50.6423 68.1661 49.2813 65.6198 48.7299 62.8479C48.1785 60.0759 48.4615 57.2026 49.5431 54.5915C50.6247 51.9803 52.4563 49.7485 54.8062 48.1783C57.1562 46.6081 59.919 45.77 62.7453 45.77L62.7553 45.78Z" fill="#DC2828"/>
<path fill-rule="evenodd" clip-rule="evenodd" d="M170.345 74.21C169.103 74.2069 167.866 74.0456 166.665 73.73C165.182 73.3353 163.625 73.3113 162.13 73.66C160.636 74.0088 159.25 74.7197 158.095 75.73L157.625 76.17C156.617 77.1775 155.853 78.4026 155.392 79.7512C154.931 81.0998 154.785 82.5362 154.965 83.95C155.017 84.3781 155.043 84.8088 155.045 85.24C155.045 87.2178 154.459 89.1512 153.36 90.7957C152.261 92.4402 150.699 93.7219 148.872 94.4788C147.045 95.2357 145.034 95.4337 143.094 95.0479C141.154 94.662 139.373 93.7096 137.974 92.3111C136.576 90.9126 135.623 89.1307 135.237 87.1909C134.851 85.2511 135.049 83.2405 135.806 81.4132C136.563 79.5859 137.845 78.0241 139.489 76.9253C141.134 75.8265 143.067 75.24 145.045 75.24C145.473 75.2414 145.9 75.2682 146.325 75.32C147.741 75.4976 149.179 75.3494 150.529 74.8867C151.879 74.4239 153.106 73.6589 154.115 72.65C154.265 72.5 154.405 72.35 154.545 72.19C155.555 71.0345 156.265 69.6487 156.614 68.1544C156.963 66.6601 156.939 65.1031 156.545 63.62C155.776 60.7358 155.93 57.6833 156.985 54.8909C158.04 52.0985 159.942 49.7065 162.426 48.0506C164.909 46.3947 167.849 45.558 170.832 45.6581C173.815 45.7581 176.692 46.7897 179.059 48.6082C181.426 50.4268 183.164 52.9408 184.03 55.7976C184.895 58.6543 184.844 61.7103 183.884 64.5365C182.924 67.3628 181.103 69.8175 178.676 71.556C176.25 73.2945 173.34 74.2296 170.355 74.23L170.345 74.21Z" fill="#32A0D2"/>
<path fill-rule="evenodd" clip-rule="evenodd" d="M156.871 51.7083C157.18 52.9877 157.129 54.3275 156.725 55.58L156.715 55.57C155.741 58.6212 155.82 61.9112 156.939 64.9122C158.059 67.9131 160.154 70.4509 162.889 72.1183C165.624 73.7857 168.839 74.486 172.02 74.1068C175.2 73.7277 178.161 72.291 180.427 70.0273C182.693 67.7637 184.133 64.8044 184.516 61.6244C184.898 58.4443 184.201 55.228 182.537 52.4914C180.872 49.7549 178.337 47.6569 175.337 46.5341C172.337 45.4113 169.047 45.3289 165.995 46.3C164.743 46.6964 163.407 46.7414 162.131 46.4301C160.855 46.1188 159.689 45.463 158.761 44.5345C157.832 43.6059 157.176 42.4402 156.865 41.1644C156.604 40.0952 156.594 38.9831 156.83 37.914C157.607 35.8054 157.88 33.5304 157.61 31.2734C157.229 28.0935 155.791 25.1338 153.526 22.8692C151.35 20.6932 148.532 19.2801 145.494 18.8348C144.236 18.6465 142.951 18.6257 141.671 18.7797C138.491 19.1623 135.532 20.6022 133.268 22.8682C131.004 25.1343 129.568 28.0951 129.188 31.2756C128.92 33.5276 129.193 35.7973 129.967 37.9013C130.212 38.978 130.205 40.0996 129.943 41.178C129.633 42.4556 128.978 43.6232 128.048 44.5528C127.118 45.4824 125.951 46.1381 124.673 46.448C123.61 46.7059 122.505 46.7162 121.443 46.4818C120.402 46.0989 119.315 45.8361 118.2 45.7032C115.019 45.324 111.804 46.0243 109.069 47.6917C108.29 48.1667 107.563 48.7123 106.895 49.3191C105.869 50.2428 104.976 51.3165 104.248 52.512C102.582 55.2505 101.884 58.4695 102.267 61.6523C102.407 62.8194 102.69 63.9568 103.103 65.0411C103.305 66.0538 103.285 67.1016 103.041 68.1117C102.733 69.3912 102.077 70.5606 101.146 71.4912C100.216 72.4218 99.0464 73.0775 97.767 73.3861C96.6597 73.6531 95.5073 73.6512 94.4054 73.3839C92.847 72.8278 91.2142 72.5501 89.5802 72.5527C87.9463 72.5501 86.3135 72.8278 84.7551 73.3839C83.6532 73.6512 82.5007 73.6531 81.3935 73.3861C80.1141 73.0775 78.9447 72.4218 78.014 71.4912C77.0834 70.5606 76.4277 69.3912 76.1191 68.1117C75.8106 66.8323 75.8611 65.4925 76.2652 64.24C77.2397 61.1889 77.1608 57.8988 76.0412 54.8978C74.9217 51.8969 72.8264 49.3591 70.0917 47.6917C67.3569 46.0243 64.1413 45.324 60.9608 45.7032C57.7804 46.0823 54.8195 47.519 52.5535 49.7827C50.2874 52.0463 48.8475 55.0056 48.4649 58.1856C48.0823 61.3657 48.7791 64.5821 50.4436 67.3186C52.108 70.0551 54.6436 72.1531 57.6433 73.2759C60.6431 74.3987 63.933 74.4811 66.9852 73.51C68.2372 73.1136 69.5739 73.0686 70.8497 73.3799C72.1254 73.6913 73.2912 74.347 74.2197 75.2755C75.1483 76.2041 75.804 77.3698 76.1153 78.6456C76.377 79.7177 76.387 80.8329 76.1482 81.9047C75.373 84.0099 75.0997 86.281 75.3684 88.5344C75.7476 91.7149 77.1843 94.6757 79.4479 96.9418C81.7115 99.2078 84.6708 100.648 87.8509 101.03C88.4272 101.1 89.0046 101.134 89.5802 101.133C90.1558 101.134 90.7333 101.1 91.3096 101.03C94.4897 100.648 97.449 99.2078 99.7126 96.9418C101.976 94.6757 103.413 91.7149 103.792 88.5344C104.061 86.281 103.788 84.0099 103.012 81.9047C102.774 80.833 102.784 79.7177 103.045 78.6456C103.356 77.3698 104.012 76.2041 104.941 75.2755C105.869 74.347 107.035 73.6913 108.311 73.3799C109.314 73.1351 110.355 73.1106 111.362 73.304C112.453 73.7208 113.598 74.0049 114.773 74.1449C117.956 74.5241 121.174 73.8228 123.911 72.1535C125.906 70.9367 127.561 69.257 128.745 67.2724C130.389 64.5459 131.076 61.3478 130.696 58.1856C130.56 57.0618 130.293 55.9656 129.904 54.9179C129.675 53.8653 129.685 52.7714 129.939 51.7183C130.248 50.4389 130.903 49.2694 131.834 48.3388C132.765 47.4082 133.934 46.7525 135.214 46.4439C136.398 46.1583 137.634 46.1804 138.805 46.5057C139.622 46.7818 140.458 46.982 141.304 47.106C143.6 47.4501 145.956 47.2309 148.165 46.4535C149.288 46.169 150.466 46.1612 151.597 46.4339C152.876 46.7425 154.046 47.3982 154.976 48.3288C155.907 49.2594 156.563 50.4289 156.871 51.7083Z" fill="black"/>
<path d="M116.485 70.28C122.207 70.28 126.845 65.6417 126.845 59.92C126.845 54.1983 122.207 49.56 116.485 49.56C110.764 49.56 106.125 54.1983 106.125 59.92C106.125 65.6417 110.764 70.28 116.485 70.28Z" fill="white"/>
<path fill-rule="evenodd" clip-rule="evenodd" d="M234.825 70.9499H346.825C348.489 70.9971 350.146 70.7101 351.697 70.1059C353.248 69.5017 354.662 68.5926 355.856 67.4323C357.05 66.272 357.998 64.8841 358.646 63.3507C359.294 61.8173 359.628 60.1696 359.628 58.5049C359.628 56.8403 359.294 55.1925 358.646 53.6591C357.998 52.1258 357.05 50.7379 355.856 49.5776C354.662 48.4173 353.248 47.5082 351.697 46.904C350.146 46.2998 348.489 46.0128 346.825 46.0599H234.825C233.161 46.0128 231.505 46.2998 229.954 46.904C228.402 47.5082 226.988 48.4173 225.795 49.5776C224.601 50.7379 223.652 52.1258 223.004 53.6591C222.356 55.1925 222.022 56.8403 222.022 58.5049C222.022 60.1696 222.356 61.8173 223.004 63.3507C223.652 64.8841 224.601 66.272 225.795 67.4323C226.988 68.5926 228.402 69.5017 229.954 70.1059C231.505 70.7101 233.161 70.9971 234.825 70.9499ZM227.654 51.2289C229.537 49.2867 232.102 48.1538 234.805 48.0699H346.805C349.509 48.1538 352.074 49.2867 353.957 51.2289C355.84 53.1711 356.893 55.7699 356.893 58.4749C356.893 61.18 355.84 63.7788 353.957 65.721C352.074 67.6631 349.509 68.7961 346.805 68.8799H234.805C232.102 68.7961 229.537 67.6631 227.654 65.721C225.771 63.7788 224.718 61.18 224.718 58.4749C224.718 55.7699 225.771 53.1711 227.654 51.2289ZM263.985 64.28L265.625 65.23L267.215 62.91L265.165 61.73L263.985 64.28ZM265.405 61.21L267.535 62.44L273.485 53.66L269.895 51.58L265.405 61.21ZM245.935 56.17H244.875L243.945 65.2399H235.605L234.605 56.14H233.445L233.045 53.5199H237.245L236.955 63.8699H242.555L242.145 53.4999H243.495V55.03H246.045L245.935 56.17ZM246.135 54.7999H243.805V52.4799H246.575L246.135 54.7999ZM244.395 53.0699L244.345 54.2499H245.685L245.815 53.0699H244.395ZM259.535 65.2999H254.315L253.885 60.0399H251.715L251.625 65.2999H250.305L248.775 53.0699H251.845L251.745 58.0099H256.025L255.715 64.0099H258.205L258.295 58.0099H260.515L259.535 65.2999ZM287.635 59.2899H278.715L278.865 63.9299H287.265L287.115 65.3299H277.305L276.165 56.8999H278.955L278.525 52.5699H281.645L281.495 56.8999H287.985L287.635 59.2899ZM300.965 56.8599H302.845L303.215 54.64H300.305V54.31H294.305L294.445 52.5799H291.115L292.115 60.7099H293.725L294.035 56.8599H298.265L297.265 65.1599H298.445L300.965 56.8599ZM300.625 54.3799H301.715L301.955 52.5699H300.745L300.625 54.3799ZM302.075 54.3799H303.235L303.515 52.5799H302.305L302.075 54.3799ZM317.455 59.6499H306.695L306.365 57.4399H317.735L317.455 59.6499ZM321.885 64.8499H332.355L332.485 63.2499L331.485 58.5399H329.055L330.705 63.2199H323.585L327.495 53.2199H324.125L321.645 63.2199L321.885 64.8499ZM347.325 55.9699L345.225 58.1799H346.315L346.075 59.9899H344.955L345.085 58.31L343.465 60.0099L347.145 64.8299H345.525L341.965 61.5799L338.845 64.8299H336.985L343.815 55.9599H336.315L336.015 53.3799H347.745L347.325 55.9699ZM347.605 59.9699H346.465L346.705 58.1599H347.875L347.605 59.9699Z" fill="black"/>
<path fill-rule="evenodd" clip-rule="evenodd" d="M290.835 41.9499C291.375 42.218 291.973 42.3485 292.575 42.33C293.476 42.2904 294.328 41.9075 294.955 41.26V37.95H292.265V39.16H293.145V41.16C293.044 41.2132 292.929 41.2342 292.815 41.22C291.875 41.22 291.375 40.53 291.375 38.67C291.375 36.81 291.875 36.17 292.725 36.17C293.301 36.2335 293.836 36.4992 294.235 36.92L294.985 36.02C294.548 35.6045 294.016 35.3033 293.435 35.1432C292.853 34.9831 292.242 34.969 291.654 35.1021C291.066 35.2353 290.52 35.5116 290.065 35.9065C289.609 36.3014 289.258 36.8027 289.043 37.3659C288.828 37.929 288.756 38.5365 288.832 39.1345C288.908 39.7324 289.131 40.3023 289.48 40.7935C289.83 41.2846 290.295 41.6819 290.835 41.9499ZM278.565 40.68C278.565 42.01 279.155 42.6 280.265 42.6C280.638 42.6098 281.01 42.5557 281.365 42.44L281.265 41.02C281.169 41.0816 281.059 41.1162 280.945 41.12C280.645 41.12 280.555 40.9 280.555 40.43V38.16H281.265V36.75H280.565V35.06L278.565 35.52V36.75H278.155V38.16H278.565V40.68ZM262.055 39.64H262.415C263.195 39.64 265.295 39.43 265.295 37.41C265.295 35.39 263.705 35.17 262.445 35.17H259.995V42.17H262.055V39.64ZM262.035 36.26H262.415H262.435C262.885 36.26 263.265 36.71 263.255 37.37C263.278 37.5392 263.263 37.7113 263.21 37.8738C263.158 38.0364 263.071 38.1853 262.954 38.3097C262.837 38.4342 262.694 38.5311 262.535 38.5934C262.376 38.6557 262.205 38.6819 262.035 38.67V36.26ZM265.985 35.17V42.17H268.045V35.17H265.985ZM274.015 42.17L270.805 38.47V42.17H269.445V35.17H270.665L273.965 38.95V35.17H275.355V42.17H274.015ZM284.145 42.6C282.635 42.6 281.605 41.68 281.605 39.6C281.605 37.52 282.605 36.6 284.155 36.6C285.705 36.6 286.695 37.52 286.695 39.6C286.695 41.68 285.655 42.6 284.145 42.6ZM284.145 37.87C283.785 37.87 283.625 38.39 283.625 39.55C283.625 40.71 283.775 41.27 284.135 41.27C284.495 41.27 284.655 40.74 284.655 39.56C284.655 38.38 284.505 37.87 284.155 37.87H284.145ZM299.445 42.17L299.085 40.9H297.195L296.835 42.17H295.365V42.07L297.575 35.16H299.635L301.635 42.07V42.16L299.445 42.17ZM298.165 37.41L297.525 39.68H298.735L298.165 37.41ZM307.745 38.24V42.17H309.825V35.17H307.555L306.245 39.17L304.795 35.17H302.335V42.17H303.725V38.24L305.175 42.17H306.495L307.745 38.24ZM315.415 42.17H311.265V35.17H315.185L315.575 36.36V36.45H313.265V38H315.495V39.25H313.265V40.89H315.795V40.99L315.415 42.17ZM317.592 42.0795C318.049 42.2659 318.542 42.3514 319.035 42.33C320.435 42.33 321.835 41.6 321.775 40.12C321.763 39.5535 321.559 39.0079 321.195 38.5734C320.832 38.1389 320.331 37.8414 319.775 37.73L319.725 37.714C318.833 37.4332 318.255 37.2511 318.255 36.78C318.255 36.3 318.645 36.2 319.065 36.2C319.7 36.2534 320.311 36.4629 320.845 36.81L321.435 35.87C320.779 35.3019 319.932 35.0051 319.065 35.04C318.741 35.0056 318.413 35.0371 318.101 35.1327C317.789 35.2282 317.5 35.3858 317.251 35.596C317.001 35.8061 316.797 36.0645 316.65 36.3556C316.503 36.6467 316.416 36.9645 316.395 37.29C316.416 37.8398 316.626 38.3655 316.991 38.7775C317.356 39.1895 317.852 39.4625 318.395 39.55C319.145 39.8 319.875 40.16 319.875 40.63C319.875 41.1 319.545 41.17 319.055 41.17C318.288 41.0906 317.566 40.7683 316.995 40.25L316.385 41.25C316.723 41.6102 317.135 41.8931 317.592 42.0795Z" fill="black"/>
</svg>
